<svg height='100px' width='100px'  fill="#0e0e0d" xmlns:x="http://ns.adobe.com/Extensibility/1.0/" xmlns:i="http://ns.adobe.com/AdobeIllustrator/10.0/" xmlns:graph="http://ns.adobe.com/Graphs/1.0/" xmlns="http://www.w3.org/2000/svg" xmlns:xlink="http://www.w3.org/1999/xlink" version="1.1" x="0px" y="0px" viewBox="0 0 100 100" style="enable-background:new 0 0 100 100;" xml:space="preserve"><g><g i:extraneous="self"><g><path d="M48.5,59H34V9c0-1.8-1.4-3.2-3.2-3.2h-6.7c-1.8,0-3.2,1.4-3.2,3.2v50H6.4c-1.5,0-2.9,0.8-3.5,2.2     c-0.7,1.3-0.5,2.9,0.4,4.1l21,27.4c0.7,1,1.9,1.5,3.1,1.5c1.2,0,2.4-0.6,3.1-1.5l21-27.4c0.9-1.2,1.1-2.8,0.4-4.1     C51.4,59.8,50,59,48.5,59z"></path><path d="M96.7,34.7l-21-27.4c-0.7-1-1.9-1.5-3.1-1.5c-1.2,0-2.4,0.6-3.1,1.5l-21,27.4c-0.9,1.2-1.1,2.8-0.4,4.1     c0.7,1.3,2,2.2,3.5,2.2H66v50c0,1.8,1.4,3.2,3.2,3.2h6.7c1.8,0,3.2-1.4,3.2-3.2V41h14.5c1.5,0,2.9-0.8,3.5-2.2     C97.8,37.5,97.6,35.9,96.7,34.7z"></path></g></g></g></svg>