<svg xmlns="http://www.w3.org/2000/svg" width="100" height="100" x="0" y="0" fill="#0e0e0d" viewBox="0 0 45.83 43.79"><defs><style>.cls-1{fill:#0e0e0d}</style></defs><title>Fichier 1177</title><g data-name="Calque 2"><g data-name="Calque 2"><path d="M9.55,27.28a2.12,2.12,0,0,1,.62,1.89L8,41.32a2.09,2.09,0,0,0,3,2.22l10.88-5.83a2.12,2.12,0,0,1,2,0l10.88,5.83a2.09,2.09,0,0,0,3.05-2.22L35.66,29.17a2.12,2.12,0,0,1,.62-1.89l8.9-8.55A2.1,2.1,0,0,0,44,15.14L31.79,13.46a2.12,2.12,0,0,1-1.61-1.16L24.8,1.18a2.1,2.1,0,0,0-3.77,0L15.65,12.3A2.12,2.12,0,0,1,14,13.46L1.82,15.14A2.1,2.1,0,0,0,.65,18.73Z" class="cls-1"/></g></g></svg>